# xmcd CD database file
#
# Track frame offsets:
#	150
#	12254
#	30183
#	46737
#	63404
#	77630
#	86237
#	99622
#	111846
#	124400
#
# Disc length: 1830 seconds
#
# Revision: 1
# Processed by: cddbd v1.5.2PL0 Copyright (c) Steve Scherf et al.
# Submitted via: CDex 1.70beta2
#
DISCID=7707240a
DTITLE=Hooper, Gary and Chuck Simms - Cdn. - Back To Back - Volume One
DYEAR=1900
DGENRE=Country
TTITLE0=Newfie Stomp
TTITLE1=Make the World Go Away
TTITLE2=Memories To Burn
TTITLE3=Angeline
TTITLE4=Blueberry Hill
TTITLE5=Bubble Headed Girl
TTITLE6=Last Farewell
TTITLE7=On Second Thought
TTITLE8=Winde Me Up
TTITLE9=Tennessee Whiskey
EXTD=
EXTT0=
EXTT1=
EXTT2=
EXTT3=
EXTT4=
EXTT5=
EXTT6=
EXTT7=
EXTT8=
EXTT9=
PLAYORDER=
